PathFileType	4	(X/Y/Z)	c:\Git\powerlifing_model_clean\simulations\HC835B\Session1\HC835B_OGW_0003\marker_experimental.trc
DataRate	CameraRate	NumFrames	NumMarkers	Units	OrigDataRate	OrigDataStartFrame	OrigNumFrames
240.000000	240.000000	4	38	mm	240.000000	321	428
Frame#	Time	RPSI			LPSI			RASI			LASI			RTH1			RTH2			RTH3			RTH4			RSK1			RSK2			RSK3			RSK4			RCAL1			RCAL2			RCAL3			RST			RPT			RTN			RFMB			RSMB			RVMB			RFMH			RSMH			RVMH			RPM			LTH1			LTH2			LTH3			LTH4			LSK1			LSK2			LSK3			LSK4			LCAL1			LCAL2			LCAL3			LFMH			LVMH			
		X1	Y1	Z1	X2	Y2	Z2	X3	Y3	Z3	X4	Y4	Z4	X5	Y5	Z5	X6	Y6	Z6	X7	Y7	Z7	X8	Y8	Z8	X9	Y9	Z9	X10	Y10	Z10	X11	Y11	Z11	X12	Y12	Z12	X13	Y13	Z13	X14	Y14	Z14	X15	Y15	Z15	X16	Y16	Z16	X17	Y17	Z17	X18	Y18	Z18	X19	Y19	Z19	X20	Y20	Z20	X21	Y21	Z21	X22	Y22	Z22	X23	Y23	Z23	X24	Y24	Z24	X25	Y25	Z25	X26	Y26	Z26	X27	Y27	Z27	X28	Y28	Z28	X29	Y29	Z29	X30	Y30	Z30	X31	Y31	Z31	X32	Y32	Z32	X33	Y33	Z33	X34	Y34	Z34	X35	Y35	Z35	X36	Y36	Z36	X37	Y37	Z37	X38	Y38	Z38	

322	1.3375	440.8158569335939	1143.272583007813	-340.6669311523438	550.3588256835939	1138.642700195313	-346.8752136230469	388.5817260742189	1106.505737304688	-127.9950637817383	635.0286865234376	1099.743774414063	-143.2919311523438	328.4092102050782	822.2356567382815	-176.2419128417969	342.8772277832032	816.320495605469	-116.2748260498047	347.3929748535157	744.4782714843751	-147.6118621826172	372.1178894042969	739.0360717773439	-94.7771682739258	412.5145874023439	295.3169555664063	-216.6092987060547	413.5105895996095	280.4330139160157	-157.016845703125	421.0117492675782	239.4047088623047	-201.7830810546876	435.5663146972657	226.1778564453126	-144.3573150634766	493.8088989257814	95.24217987060548	-262.1633300781251	522.9776611328126	56.64525222778322	-251.4380340576172	459.2230834960939	57.51720428466798	-259.4829406738282	533.2428588867189	73.96584320068361	-183.2801208496094	432.1862792968751	71.41958618164064	-201.4819793701172	516.7996215820314	95.72924804687501	-128.4789428710938	510.1266479492189	80.18931579589845	-96.39656829833987	461.8746643066407	105.0848922729492	-91.01699829101564	418.0299377441407	48.49891662597658	-158.3471374511719	508.6499938964845	54.44445037841798	-41.50189971923829	454.5260620117189	71.07036590576173	-31.06960487365723	396.682098388672	44.47284698486329	-79.94277191162111	462.7663574218751	61.7284507751465	26.91146278381348	718.1608276367189	823.1325683593752	-169.4880828857422	726.2549438476564	830.1972656250002	-108.3838348388672	727.7870483398439	750.4385986328126	-123.9637985229492	720.7192993164064	756.7919921875001	-63.93737792968751	671.2656860351564	430.102752685547	-314.6572875976563	686.6968383789064	383.5449523925782	-293.5932617187501	669.1765747070314	379.5316162109376	-340.1975708007813	667.8313598632814	331.3015441894532	-311.2076110839844	590.5238037109376	319.1625366210938	-459.5362854003907	611.3588256835939	295.2582702636719	-495.4221191406251	555.1804199218751	292.7781982421876	-477.7176208496095	590.1204833984376	123.5741424560547	-341.1850280761719	676.9074096679689	133.1942443847657	-411.5735168457032	
323	1.341666666666667	440.9439392089845	1144.43798828125	-334.3709411621094	550.4785766601564	1140.117065429688	-340.5751342773438	388.4173583984376	1107.518920898438	-122.046630859375	634.6622314453126	1101.479614257813	-136.9898071289063	328.4305419921876	823.0408325195315	-172.6021728515625	342.7941894531251	816.4344482421877	-112.7437515258789	347.3651123046876	744.9973144531251	-144.6672058105469	372.1410217285157	738.9774169921876	-91.89525604248048	412.6614379882814	295.7132568359376	-216.3313140869141	414.0601806640626	280.4530639648438	-156.5907592773438	421.0242614746095	239.9305725097657	-201.5902404785157	435.3842163085939	226.5978393554688	-144.221435546875	493.8185424804689	95.36299133300783	-262.0867614746094	523.0572509765626	56.81157684326173	-251.4112854003907	459.368621826172	57.57274246215822	-259.3726806640626	533.2549438476564	74.0590286254883	-183.220687866211	432.1954956054689	71.5176467895508	-201.4537200927735	516.8283691406251	95.81011962890626	-128.3855590820313	510.1096801757814	80.21641540527345	-96.3506774902344	461.8386230468751	105.1192474365235	-91.00088500976564	418.0616149902345	48.58043289184572	-158.3049774169922	508.6373291015626	54.40988540649415	-41.46440124511719	454.4968261718751	71.02652740478517	-31.05448913574219	396.6832885742189	44.45383071899415	-79.92163085937501	462.7472534179689	61.64063262939455	26.94711875915528	718.6648559570314	825.1213989257815	-160.7288665771485	726.8959960937501	832.591735839844	-100.9955062866211	728.0967407226564	752.9684448242189	-114.3072509765625	720.5855712890626	759.8876953125001	-54.40351867675783	671.4415893554689	429.2251281738282	-301.4513549804688	686.7534179687501	382.9580078125001	-279.5073852539063	669.2360229492189	378.2402954101563	-326.0625305175782	667.9365844726564	330.3688049316407	-296.2810974121094	590.4920654296876	315.6579895019532	-444.2784729003907	611.5364379882814	291.2690429687501	-479.9124450683595	555.3231811523439	288.7767333984376	-462.2860107421876	590.6807861328126	122.13916015625	-322.8141479492188	677.5626831054689	130.9584503173828	-393.2404785156251	
324	1.345833333333333	441.197967529297	1145.675659179688	-328.2491149902344	550.6246337890626	1141.418212890625	-334.3262023925782	388.2727355957032	1108.553588867188	-116.1118927001953	634.2779541015626	1103.186401367188	-130.6891784667969	328.5518798828126	823.7460937500002	-168.9263610839844	341.9046630859376	816.1812133789065	-109.9712905883789	347.3917541503907	745.3490600585939	-141.7180328369141	372.1851501464844	738.9489746093751	-88.8927459716797	412.8220825195314	296.1569519042969	-216.0528106689454	413.9556274414064	280.7189331054688	-156.3605346679688	421.0916442871095	240.2762145996094	-201.4156341552735	435.2075500488282	226.7803802490235	-144.0408935546875	492.5474243164064	94.36822509765626	-262.5345153808594	523.0751953125001	56.92480468750001	-251.3576049804688	459.4138183593751	57.71401596069337	-259.3328552246094	533.2373657226564	74.11309051513673	-183.19677734375	432.2327270507814	71.6397171020508	-201.4469299316407	516.8567504882814	95.87876129150392	-128.2676391601563	510.1232910156251	80.24149322509767	-96.31252288818362	461.8450317382814	105.1176528930664	-90.93519592285158	418.0681457519532	48.63522720336915	-158.2703247070313	508.6511230468751	54.51714324951173	-41.33993148803712	454.5078430175782	70.98651123046876	-31.02012252807618	396.6557006835939	44.4576759338379	-79.89880371093751	462.737274169922	61.53230667114259	27.00041961669923	717.9625854492189	827.2173461914065	-151.1024627685547	726.8228149414064	835.1774902343752	-91.61508178710939	728.3711547851564	755.3822631835939	-104.7331085205078	720.4678955078126	762.6511230468751	-45.01879882812501	671.4218139648439	428.1304931640626	-288.0688476562501	686.8179931640626	382.1763000488282	-265.3623352050782	669.0031127929689	376.6499938964844	-311.6975402832032	668.0996704101564	329.4168395996094	-281.2507019042969	590.6624145507814	312.1496276855469	-429.2442321777345	611.8194580078126	287.1361389160157	-464.3071289062501	555.6010742187501	284.8386230468751	-446.6778564453126	591.3000488281251	120.6380996704102	-304.2595214843751	678.2494506835939	128.5060729980469	-374.6964111328126	
325	1.35	441.3219299316407	1146.773803710938	-321.9975585937501	550.7904663085939	1142.713500976563	-328.0961608886719	388.1997375488282	1109.516845703125	-110.1724395751953	633.8408203125001	1104.845458984375	-124.337142944336	328.5844726562501	824.2978515625002	-165.2323150634766	342.5697937011719	816.4484863281252	-106.1735916137696	347.4273376464844	745.6865234375001	-138.7071380615235	372.2204895019532	738.8454589843751	-85.86695861816408	413.038787841797	296.5235900878907	-215.8118591308594	413.9263610839845	280.9498596191407	-156.2018585205078	421.1292724609376	240.7166137695313	-201.2364959716797	435.0272827148439	227.0082397460938	-143.8731536865235	492.4954833984376	94.43204498291017	-262.7364501953126	523.1363525390626	57.05640029907228	-251.3215484619141	459.4809570312501	57.875789642334	-259.2969360351563	533.2545776367189	74.17016601562501	-183.1597900390625	432.3034973144532	71.72686004638673	-201.4083862304688	516.9168090820314	95.91339111328126	-128.2100982666016	510.1379394531251	80.26139068603517	-96.24622344970706	461.8164062500001	105.1484985351563	-90.84542083740236	418.1239318847657	48.71414184570314	-158.2290344238282	508.6295471191407	54.48926544189455	-41.30074691772462	454.5130004882814	70.91394042968751	-30.95872497558594	396.6672363281251	44.44718170166016	-79.89107513427736	462.7451171875001	61.46693420410158	27.06524467468262	718.7363891601564	828.7532958984377	-142.3750152587891	726.5330200195314	837.1286621093752	-83.22410583496095	728.6622924804689	757.7247314453126	-95.22084045410158	720.2153320312501	765.6544799804689	-35.5886459350586	671.4482421875001	426.8540039062501	-274.6483459472657	686.9038085937501	381.3436889648438	-251.1878051757813	669.0808105468751	374.9944152832032	-297.3239440917969	668.2130737304689	328.1904907226563	-266.2431945800782	590.6893310546876	308.2912902832032	-413.9148864746095	612.0106201171876	282.6558227539063	-448.3483276367189	555.5262451171876	280.6307983398438	-431.1319274902345	591.8756713867189	119.1088790893555	-285.5364990234376	678.9064331054689	126.0356750488282	-355.9280700683594	
